<?xml version="1.0" encoding="UTF-8" standalone="no"?>
<svg width="48px" height="48px" viewBox="0 0 48 48" version="1.1" xmlns="http://www.w3.org/2000/svg" xmlns:xlink="http://www.w3.org/1999/xlink">
    <!-- Generator: Sketch 39.1 (31720) - http://www.bohemiancoding.com/sketch -->
    <title>trade-anywhere-med-white@1x</title>
    <desc>Created with Sketch.</desc>
    <defs></defs>
    <g id="Page-1" stroke="none" stroke-width="1" fill="none" fill-rule="evenodd">
        <g id="Desktop---demo-text-link" transform="translate(-1091.000000, -3860.000000)" fill="#FFFFFF">
            <path d="M1135.771,3895.988 C1137.812,3892.459 1139,3888.373 1139,3884 C1139,3880.516 1138.241,3877.214 1136.906,3874.226 C1136.812,3874.015 1136.705,3873.811 1136.606,3873.602 C1132.729,3865.562 1124.524,3860 1115,3860 C1105.477,3860 1097.271,3865.562 1093.394,3873.602 C1093.295,3873.811 1093.188,3874.015 1093.094,3874.226 C1091.759,3877.214 1091,3880.516 1091,3884 C1091,3888.373 1092.188,3892.459 1094.229,3895.988 C1094.48,3896.422 1094.732,3896.855 1095.01,3897.271 C1099.308,3903.736 1106.654,3908 1115,3908 C1123.594,3908 1131.11,3903.469 1135.349,3896.681 C1135.489,3896.45 1135.635,3896.222 1135.771,3895.988 L1135.771,3895.988 Z M1134.494,3895.186 C1131.25,3893.234 1127.501,3891.754 1123.406,3890.891 C1123.784,3888.671 1124,3886.37 1124,3884 C1124,3882.655 1123.914,3881.336 1123.79,3880.034 C1128.236,3879.05 1132.241,3877.318 1135.639,3875.06 C1136.83,3877.804 1137.5,3880.823 1137.5,3884 C1137.5,3888.074 1136.396,3891.887 1134.494,3895.186 L1134.494,3895.186 Z M1115,3890 C1112.615,3890 1110.3,3890.219 1108.067,3890.602 C1107.707,3888.475 1107.5,3886.271 1107.5,3884 C1107.5,3882.752 1107.575,3881.531 1107.687,3880.324 C1110.038,3880.75 1112.479,3881 1115,3881 C1117.521,3881 1119.962,3880.75 1122.312,3880.324 C1122.425,3881.531 1122.5,3882.752 1122.5,3884 C1122.5,3886.271 1122.293,3888.475 1121.933,3890.602 C1119.7,3890.219 1117.385,3890 1115,3890 L1115,3890 Z M1121.648,3892.076 C1120.478,3897.638 1118.138,3902.54 1115,3906.298 C1111.862,3902.54 1109.521,3897.64 1108.352,3892.076 C1110.494,3891.71 1112.713,3891.5 1115,3891.5 C1117.287,3891.5 1119.506,3891.71 1121.648,3892.076 L1121.648,3892.076 Z M1107.859,3878.828 C1108.744,3872.074 1111.325,3866.102 1115,3861.703 C1118.675,3866.102 1121.256,3872.074 1122.141,3878.828 C1119.848,3879.251 1117.464,3879.5 1115,3879.5 C1112.536,3879.5 1110.152,3879.251 1107.859,3878.828 L1107.859,3878.828 Z M1134.983,3873.704 C1131.74,3875.89 1127.896,3877.579 1123.616,3878.543 C1122.737,3871.949 1120.286,3866.09 1116.802,3861.59 C1124.729,3862.225 1131.5,3866.974 1134.983,3873.704 L1134.983,3873.704 Z M1113.198,3861.592 C1109.714,3866.092 1107.263,3871.949 1106.384,3878.545 C1102.104,3877.58 1098.26,3875.891 1095.017,3873.706 C1098.5,3866.974 1105.271,3862.225 1113.198,3861.592 L1113.198,3861.592 Z M1094.363,3875.06 C1097.76,3877.318 1101.766,3879.05 1106.212,3880.034 C1106.086,3881.336 1106,3882.655 1106,3884 C1106,3886.37 1106.216,3888.671 1106.594,3890.891 C1102.497,3891.755 1098.75,3893.234 1095.506,3895.186 C1093.604,3891.887 1092.5,3888.074 1092.5,3884 C1092.5,3880.823 1093.17,3877.804 1094.363,3875.06 L1094.363,3875.06 Z M1096.287,3896.473 C1099.384,3894.611 1102.961,3893.189 1106.882,3892.361 C1108.016,3897.776 1110.23,3902.582 1113.193,3906.41 C1106.149,3905.845 1100.01,3902.039 1096.287,3896.473 L1096.287,3896.473 Z M1116.809,3906.409 C1119.771,3902.582 1121.984,3897.775 1123.12,3892.36 C1127.041,3893.189 1130.618,3894.61 1133.714,3896.471 C1129.99,3902.039 1123.852,3905.845 1116.809,3906.409 L1116.809,3906.409 Z" id="trade-anywhere-med-white"></path>
        </g>
    </g>
</svg>