<?xml version="1.0" encoding="UTF-8" standalone="no"?>
<svg width="48px" height="45px" viewBox="0 0 48 45" version="1.1" xmlns="http://www.w3.org/2000/svg" xmlns:xlink="http://www.w3.org/1999/xlink">
    <!-- Generator: Sketch 39.1 (31720) - http://www.bohemiancoding.com/sketch -->
    <title>large-trade-size-med-blue@1x</title>
    <desc>Created with Sketch.</desc>
    <defs></defs>
    <g id="Page-1" stroke="none" stroke-width="1" fill="none" fill-rule="evenodd">
        <g id="Desktop---demo-text-link" transform="translate(-770.000000, -3865.000000)" fill="#FFFFFF">
            <path d="M771.5,3905.5 L816.5,3905.5 L816.5,3908.5 L771.5,3908.5 L771.5,3905.5 Z M770,3910 L818,3910 L818,3904 L770,3904 L770,3910 Z M770,3886 L782,3886 L782,3883 L770,3883 L770,3886 Z M770,3874 L782,3874 L782,3871 L770,3871 L770,3874 Z M806,3886 L818,3886 L818,3883 L806,3883 L806,3886 Z M806,3868 L818,3868 L818,3865 L806,3865 L806,3868 Z M788,3892 L800,3892 L800,3889 L788,3889 L788,3892 Z M788,3880 L800,3880 L800,3877 L788,3877 L788,3880 Z M806,3892 L818,3892 L818,3889 L806,3889 L806,3892 Z M806,3874 L818,3874 L818,3871 L806,3871 L806,3874 Z M806,3898 L818,3898 L818,3895 L806,3895 L806,3898 Z M806,3880 L818,3880 L818,3877 L806,3877 L806,3880 Z M788,3898 L800,3898 L800,3895 L788,3895 L788,3898 Z M788,3886 L800,3886 L800,3883 L788,3883 L788,3886 Z M770,3898 L782,3898 L782,3895 L770,3895 L770,3898 Z M770,3892 L782,3892 L782,3889 L770,3889 L770,3892 Z M770,3880 L782,3880 L782,3877 L770,3877 L770,3880 Z" id="large-trade-size-med-blue"></path>
        </g>
    </g>
</svg>