<?xml version="1.0" encoding="UTF-8" standalone="no"?>
<svg width="34px" height="34px" viewBox="0 0 34 34" version="1.1" xmlns="http://www.w3.org/2000/svg" xmlns:xlink="http://www.w3.org/1999/xlink">
    <!-- Generator: Sketch 39.1 (31720) - http://www.bohemiancoding.com/sketch -->
    <title>Group 7</title>
    <desc>Created with Sketch.</desc>
    <defs></defs>
    <g id="Page-1" stroke="none" stroke-width="1" fill="none" fill-rule="evenodd">
        <g id="Desktop-UK" transform="translate(-1482.000000, -1169.000000)" fill="#0A264D">
            <g id="Group-7" transform="translate(1482.000000, 1169.000000)">
                <path d="M0,1.0625 L1.0625,0 L1.0625,34 L0,32.9375 L34,32.9375 L32.9375,34 L32.9375,0 L34,1.0625 L0,1.0625 Z M34,0 L34,34 L0,34 L0,0 L34,0 Z" id="Rectangle-195"></path>
                <path d="M13.9466486,6.06351805 L13.9466486,6.91307196 L11.4750739,6.91307196 L11.4750739,8.50499307 L13.4222583,8.50499307 L13.4222583,9.32675783 L11.4750739,9.32675783 L11.4750739,10.950438 L13.9466486,10.950438 L13.9466486,11.8039617 L10.4301491,11.8039617 L10.4301491,6.06351805 L13.9466486,6.06351805 Z M17.8718639,7.10759598 C17.8435878,7.16582115 17.8108138,7.20684282 17.7735407,7.2306622 C17.7362677,7.25448159 17.6919263,7.26639111 17.6405153,7.26639111 C17.5891042,7.26639111 17.5312676,7.24588027 17.4670038,7.204858 C17.40274,7.16383572 17.3269098,7.11818258 17.239511,7.0678972 C17.1521121,7.01761183 17.0499342,6.97195869 16.932974,6.93093641 C16.8160138,6.88991413 16.6778487,6.8694033 16.5184743,6.8694033 C16.3745234,6.8694033 16.2492108,6.88726757 16.1425328,6.92299665 C16.0358548,6.95872573 15.9458868,7.00834871 15.872626,7.07186708 C15.7993653,7.13538545 15.7447418,7.21147402 15.7087541,7.30013507 C15.6727663,7.38879612 15.6547727,7.48605716 15.6547727,7.59192111 C15.6547727,7.72689764 15.6914026,7.83937639 15.7646633,7.92936074 C15.8379241,8.0193451 15.934961,8.09609531 16.0557771,8.15961367 C16.1765931,8.22313204 16.3141156,8.28003306 16.4683488,8.33031843 C16.622582,8.3806038 16.780026,8.43419662 16.9406856,8.49109849 C17.1013452,8.54800036 17.2587892,8.61416434 17.4130224,8.6895924 C17.5672556,8.76502046 17.7047782,8.86029658 17.8255942,8.97542362 C17.9464102,9.09055066 18.0434471,9.23147992 18.1167079,9.39821563 C18.1899687,9.56495135 18.2265985,9.7674131 18.2265985,10.005607 C18.2265985,10.2649736 18.1835424,10.5077954 18.0974289,10.7340796 C18.0113153,10.9603638 17.8853601,11.1575324 17.7195594,11.3255914 C17.5537587,11.4936505 17.3513307,11.6259784 17.1122692,11.7225792 C16.8732077,11.8191801 16.5994479,11.8674798 16.2909815,11.8674798 C16.1136133,11.8674798 15.9388183,11.8496155 15.7665912,11.8138864 C15.5943642,11.7781574 15.4292086,11.7272111 15.2711196,11.6610461 C15.1130305,11.5948812 14.9652259,11.5154844 14.8277013,11.4228535 C14.6901767,11.3302225 14.5674346,11.2270067 14.4594714,11.113203 L14.7602246,10.6010887 C14.7885007,10.5640363 14.82256,10.5329392 14.8624036,10.5077966 C14.9022472,10.4826539 14.9465886,10.4700827 14.9954291,10.4700827 C15.0596929,10.4700827 15.1290968,10.4972099 15.2036429,10.5514652 C15.2781889,10.6057205 15.3662291,10.6659297 15.4677659,10.7320947 C15.5693028,10.7982596 15.6888317,10.8584688 15.8263563,10.9127241 C15.9638809,10.9669794 16.1290365,10.9941066 16.321828,10.9941066 C16.6174416,10.9941066 16.8462174,10.9219879 17.0081623,10.7777483 C17.1701072,10.6335086 17.2510784,10.4264154 17.2510784,10.1564623 C17.2510784,10.0056062 17.2144486,9.88254123 17.1411878,9.78726368 C17.067927,9.69198613 16.9708901,9.61192773 16.8500741,9.54708606 C16.7292581,9.48224439 16.5917355,9.4273283 16.4375023,9.38233612 C16.2832691,9.33734394 16.1264677,9.2883826 15.9670934,9.23545063 C15.8077191,9.18251866 15.6509177,9.11900124 15.4966845,9.04489648 C15.3424513,8.97079172 15.2049287,8.87419232 15.0841127,8.75509538 C14.9632967,8.63599845 14.8662598,8.48712951 14.792999,8.3084841 C14.7197383,8.12983869 14.6831084,7.90951266 14.6831084,7.6474994 C14.6831084,7.43841811 14.723594,7.23463307 14.8045665,7.03613818 C14.8855389,6.83764328 15.0037826,6.66164711 15.159301,6.50814439 C15.3148195,6.35464167 15.5056802,6.23157668 15.7318889,6.13894573 C15.9580976,6.04631478 16.2164344,6 16.5069069,6 C16.8359377,6 17.1392585,6.05293118 17.4168783,6.15879512 C17.694498,6.26465907 17.9309854,6.41286637 18.1263474,6.60342147 L17.8718639,7.10759598 Z M22.9885248,6.06351805 L22.9885248,6.9408611 L21.3112471,6.9408611 L21.3112471,11.8039617 L20.274034,11.8039617 L20.274034,6.9408611 L18.5890447,6.9408611 L18.5890447,6.06351805 L22.9885248,6.06351805 Z M22.7109064,11.2640583 C22.7109064,11.1820138 22.7256869,11.1039403 22.7552483,11.0298355 C22.7848096,10.9557308 22.8259379,10.8922133 22.8786342,10.8392814 C22.9313305,10.7863494 22.9936655,10.7440045 23.065641,10.7122453 C23.1376165,10.6804861 23.214732,10.6646067 23.2969897,10.6646067 C23.3766768,10.6646067 23.452507,10.6804861 23.5244825,10.7122453 C23.596458,10.7440045 23.6581504,10.7863494 23.7095614,10.8392814 C23.7609725,10.8922133 23.8021007,10.9557308 23.8329474,11.0298355 C23.863794,11.1039403 23.8792171,11.1820138 23.8792171,11.2640583 C23.8792171,11.3487495 23.863794,11.4274846 23.8329474,11.5002661 C23.8021007,11.5730475 23.7609725,11.6359033 23.7095614,11.6888353 C23.6581504,11.7417673 23.596458,11.7834506 23.5244825,11.8138864 C23.452507,11.8443223 23.3766768,11.85954 23.2969897,11.85954 C23.214732,11.85954 23.1376165,11.8443223 23.065641,11.8138864 C22.9936655,11.7834506 22.9313305,11.7417673 22.8786342,11.6888353 C22.8259379,11.6359033 22.7848096,11.5730475 22.7552483,11.5002661 C22.7256869,11.4274846 22.7109064,11.3487495 22.7109064,11.2640583 L22.7109064,11.2640583 Z M6.22879829,24.79629 L7.27627529,24.79629 L7.27627529,16.1505976 L6.23461761,16.1505976 L4,17.8042435 L4,18.942623 L6.13568922,17.3488918 L6.22879829,17.3488918 L6.22879829,24.79629 Z M12.2473684,24.9940085 C14.3015872,24.9940085 15.4770891,23.2924308 15.4770891,20.3206613 C15.4770891,19.3680174 15.3432449,18.5711518 15.069737,17.91209 C14.5459985,16.6359067 13.5741726,15.9468876 12.3172002,15.9468876 C10.5946824,15.9468876 9.37262593,17.1871221 9.37262593,18.9246486 C9.37262593,20.6022604 10.53067,21.818529 12.130982,21.818529 C13.1319045,21.818529 13.9524282,21.3272284 14.3655996,20.4884225 L14.3888769,20.4884225 L14.4121542,20.4884225 L14.4587087,20.4884225 C14.4005155,22.7891473 13.6265464,24.0353732 12.259007,24.0353732 C11.432664,24.0353732 10.7983585,23.5440726 10.5714052,22.735224 L9.49483158,22.735224 C9.76252015,24.1252453 10.8216358,24.9940085 12.2473684,24.9940085 L12.2473684,24.9940085 Z M12.3172002,20.8838595 C11.2057107,20.8838595 10.4317416,20.0690195 10.4317416,18.8886998 C10.4317416,17.7563118 11.2522652,16.89354 12.3288388,16.89354 C13.4054124,16.89354 14.225936,17.7682947 14.225936,18.9246486 C14.225936,20.0690195 13.4286897,20.8838595 12.3172002,20.8838595 L12.3172002,20.8838595 Z M19.8138767,25 C21.5945876,25 22.8399214,23.9634755 22.8399214,22.4835823 C22.8399214,21.3571857 22.1474227,20.482431 21.0941264,20.278721 L21.0941264,20.1828575 C21.9612046,19.9372072 22.4965817,19.2002562 22.4965817,18.2536039 C22.4965817,16.9055229 21.3850922,15.9468876 19.8138767,15.9468876 C18.2426612,15.9468876 17.1311717,16.9055229 17.1311717,18.2536039 C17.1311717,19.1942648 17.6781875,19.9431986 18.533627,20.1828575 L18.533627,20.278721 C17.4803307,20.482431 16.787832,21.3571857 16.787832,22.4835823 C16.787832,23.9634755 18.0331658,25 19.8138767,25 L19.8138767,25 Z M19.8138767,24.0773135 C18.6500134,24.0773135 17.8469477,23.3942858 17.8469477,22.4056931 C17.8469477,21.4171005 18.6500134,20.7340728 19.8138767,20.7340728 C20.97774,20.7340728 21.7808057,21.4171005 21.7808057,22.4056931 C21.7808057,23.3942858 20.97774,24.0773135 19.8138767,24.0773135 L19.8138767,24.0773135 Z M19.8138767,19.8233692 C18.8245929,19.8233692 18.1611908,19.2362051 18.1611908,18.3554589 C18.1611908,17.4627297 18.8187735,16.8695741 19.8138767,16.8695741 C20.8089799,16.8695741 21.4665626,17.4627297 21.4665626,18.3554589 C21.4665626,19.2362051 20.8031605,19.8233692 19.8138767,19.8233692 L19.8138767,19.8233692 Z M27.0254067,24.9940085 C29.0796255,24.9940085 30.2551275,23.2924308 30.2551275,20.3206613 C30.2551275,19.3680174 30.1212832,18.5711518 29.8477753,17.91209 C29.3240368,16.6359067 28.3522109,15.9468876 27.0952385,15.9468876 C25.3727208,15.9468876 24.1506643,17.1871221 24.1506643,18.9246486 C24.1506643,20.6022604 25.3087083,21.818529 26.9090204,21.818529 C27.9099428,21.818529 28.7304665,21.3272284 29.143638,20.4884225 L29.1669152,20.4884225 L29.1901925,20.4884225 L29.236747,20.4884225 C29.1785539,22.7891473 28.4045848,24.0353732 27.0370453,24.0353732 C26.2107024,24.0353732 25.5763969,23.5440726 25.3494435,22.735224 L24.2728699,22.735224 C24.5405585,24.1252453 25.5996741,24.9940085 27.0254067,24.9940085 L27.0254067,24.9940085 Z M27.0952385,20.8838595 C25.983749,20.8838595 25.2097799,20.0690195 25.2097799,18.8886998 C25.2097799,17.7563118 26.0303036,16.89354 27.1068771,16.89354 C28.1834507,16.89354 29.0039744,17.7682947 29.0039744,18.9246486 C29.0039744,20.0690195 28.206728,20.8838595 27.0952385,20.8838595 L27.0952385,20.8838595 Z" id="EST."></path>
            </g>
        </g>
    </g>
</svg>