<?xml version="1.0" encoding="UTF-8" standalone="no"?>
<svg width="37px" height="36px" viewBox="0 0 37 36" version="1.1" xmlns="http://www.w3.org/2000/svg" xmlns:xlink="http://www.w3.org/1999/xlink">
    <!-- Generator: Sketch 39.1 (31720) - http://www.bohemiancoding.com/sketch -->
    <title>Fill 55 Copy + Fill 69 Copy 4 + 24 copy</title>
    <desc>Created with Sketch.</desc>
    <defs></defs>
    <g id="Page-1" stroke="none" stroke-width="1" fill="none" fill-rule="evenodd">
        <g id="Desktop-UK" transform="translate(-621.000000, -1158.000000)">
            <g id="Fill-55-Copy-+-Fill-69-Copy-4-+-24-copy" transform="translate(621.000000, 1151.000000)">
                <g id="Group-8">
                    <g id="Group-9">
                        <path d="M19.5273496,2.574 C27.7414474,2.574 34.4,9.29612358 34.4,17.5886436 C34.4,25.8811636 27.7414474,32.604 19.5273496,32.604 L19.5273496,32.604 C18.4321836,32.604 17.3673801,32.4764008 16.34,32.2497163 L16.34,31.1419559 C17.3652618,31.3871744 18.4286531,31.531169 19.5273496,31.531169 C27.1419658,31.531169 33.3373148,25.2766714 33.3373148,17.5886436 C33.3373148,9.90132855 27.143378,3.64683096 19.5273496,3.64683096" id="Fill-55-Copy" fill="#08254E" transform="translate(25.370000, 17.589000) rotate(-48.000000) translate(-25.370000, -17.589000) "></path>
                        <path d="M23.7224838,32.4808 C23.7074526,32.4765158 23.6902741,32.4736596 23.6709483,32.4736596 C23.0102918,32.4736596 20.0849364,35.2334053 19.5896229,35.2334053 C19.5846125,35.2334053 19.5796022,35.2334053 19.5753075,35.2319772 C17.9891593,35.0270491 14.4382202,32.989907 12.1613531,30.7656877 C9.93172692,28.4936281 7.88820116,24.9527281 7.68420647,23.3697123 C7.62408172,22.9098737 10.6117092,19.7795439 10.4427873,19.2340211 C9.74204765,16.973386 5.23770172,11.3646404 4.38808172,11.1589982 C4.37591362,11.1561421 4.36374552,11.154 4.35014587,11.154 C3.72599369,11.154 1.53501913,14.2550544 0.0791412335,16.8341491 C-0.546442486,17.9430456 2.60724386,26.9898702 7.04430733,32.3972579 C7.58256701,33.0534561 8.13013171,33.6782368 8.68199103,34.2394684 C9.24458691,34.7892754 9.8708864,35.3347982 10.5286798,35.8724667 C15.4868245,39.9231877 23.4998791,42.9 25.6779698,42.9 C25.8805329,42.9 26.0322763,42.8742947 26.1267581,42.8207421 C28.7658052,41.3384053 31.9531328,39.0884807 31.8157048,38.5222509 C31.6102785,37.6732632 25.9871828,33.1812684 23.7224838,32.4808 L23.7224838,32.4808 Z M25.6658017,41.679 C23.8212602,41.6668614 16.0673146,38.8192895 11.3031439,34.9270842 C10.6131408,34.3637105 10.0355137,33.8524614 9.55523146,33.3840544 C9.06850728,32.888514 8.55601536,32.3130018 7.99055639,31.6232439 C3.97722926,26.7335316 1.16639715,18.8313053 1.21936419,17.3025561 C2.39322838,15.2425649 3.67159511,13.4596193 4.36875591,12.6706105 C5.6235022,13.9123175 8.37134648,17.4432211 9.14151591,19.2440175 C8.88097532,19.6488754 8.31981098,20.3579123 7.95691516,20.8141807 C6.80738718,22.264386 6.37649313,22.8077667 6.46954334,23.527514 C6.72292622,25.4818281 8.97330976,29.2640719 11.3038596,31.6382386 C13.6659034,33.945286 17.4566258,36.1902123 19.4149749,36.4422667 L19.5080251,36.4536912 L19.5874756,36.4536912 C20.2123436,36.4536912 20.6976362,36.0945316 22.1363356,34.9592158 C22.594429,34.597914 23.3037579,34.0381105 23.7103157,33.7782018 C25.514774,34.5465035 29.0556924,37.2876842 30.2989863,38.5393877 C29.5116384,39.236286 27.7286532,40.5086965 25.6658017,41.679 L25.6658017,41.679 Z" id="Fill-69-Copy-4" fill="#08254E"></path>
                        <path d="M19.2331859,16.302 C19.5863465,16.302 19.9162169,16.3552914 20.2228069,16.4618758 C20.5293968,16.5684602 20.7942633,16.7233999 21.0174143,16.9266998 C21.2405652,17.1299996 21.4161726,17.3777059 21.5442419,17.6698261 C21.6723111,17.9619463 21.7363448,18.2935371 21.7363448,18.6646087 C21.7363448,18.9804143 21.6897748,19.2725301 21.5966336,19.5409648 C21.5034923,19.8093995 21.3773654,20.0669746 21.2182491,20.3136977 C21.0591328,20.5604208 20.8757637,20.7992452 20.6681363,21.0301781 C20.4605089,21.2611109 20.2402719,21.4969746 20.0074188,21.7377764 L17.8127888,24.0234079 C17.9680242,23.9799846 18.1251978,23.9454439 18.2843141,23.9197847 C18.4434304,23.8941255 18.5967231,23.8812961 18.7441968,23.8812961 L21.5384206,23.8812961 C21.6509663,23.8812961 21.7402253,23.9148499 21.8062004,23.9819586 C21.8721754,24.0490673 21.9051625,24.1359125 21.9051625,24.2424969 L21.9051625,24.882 L16.34,24.882 L16.34,24.5207992 C16.34,24.4457953 16.3545531,24.3688189 16.3836597,24.2898675 C16.4127664,24.2109161 16.4603065,24.1378872 16.5262816,24.0707785 L19.1982581,21.3410476 C19.4194686,21.1120886 19.6212717,20.8920149 19.8036733,20.6808199 C19.9860749,20.4696249 20.1422782,20.2574462 20.2722879,20.0442774 C20.4022976,19.8311087 20.5022289,19.6149825 20.5720848,19.3958923 C20.6419408,19.1768022 20.6768682,18.9429122 20.6768682,18.6942153 C20.6768682,18.4455184 20.63806,18.2274185 20.5604422,18.0399089 C20.4828245,17.8523993 20.3761018,17.6974595 20.2402708,17.5750849 C20.1044398,17.4527102 19.9453258,17.3609306 19.7629242,17.2997433 C19.5805226,17.2385559 19.3845408,17.2079627 19.1749729,17.2079627 C18.9654051,17.2079627 18.7713637,17.2395428 18.592843,17.3027039 C18.4143222,17.3658651 18.2561785,17.4536972 18.118407,17.5662029 C17.9806356,17.6787086 17.8642108,17.8119371 17.7691291,17.9658923 C17.6740474,18.1198476 17.6071031,18.2895905 17.5682942,18.4751263 C17.5372471,18.5896058 17.4906772,18.6725035 17.428583,18.7238219 C17.3664889,18.7751404 17.2849915,18.8007992 17.1840884,18.8007992 C17.164684,18.8007992 17.1443097,18.7998123 17.1229648,18.7978385 C17.1016199,18.7958647 17.0773648,18.7929041 17.0501986,18.7889565 L16.5088177,18.6942153 C16.5631501,18.3073535 16.6679324,17.9649069 16.8231679,17.6668654 C16.9784033,17.3688239 17.1753553,17.1191439 17.4140298,16.9178178 C17.6527043,16.7164917 17.9263026,16.5635257 18.234833,16.4589151 C18.5433635,16.3543045 18.8761444,16.302 19.2331859,16.302 L19.2331859,16.302 Z M27.743926,21.8206749 L29.007148,21.8206749 L29.007148,22.4246501 C29.007148,22.4878112 28.9887141,22.5411026 28.9518457,22.5845259 C28.9149773,22.6279491 28.857735,22.6496605 28.7801173,22.6496605 L27.743926,22.6496605 L27.743926,24.882 L26.8299819,24.882 L26.8299819,22.6496605 L23.1334567,22.6496605 C23.055839,22.6496605 22.9888947,22.6269623 22.9326218,22.5815652 C22.876349,22.5361682 22.8404513,22.4799161 22.8249278,22.4128075 L22.7201444,21.8739669 L26.7775903,16.3967412 L27.743926,16.3967412 L27.743926,21.8206749 Z M26.8299819,18.3211718 C26.8299819,18.218535 26.8328926,18.1080047 26.8387139,17.9895776 C26.8445352,17.8711505 26.8571479,17.7487777 26.8765523,17.6224555 L23.8436552,21.8206749 L26.8299819,21.8206749 L26.8299819,18.3211718 Z" id="24-copy" fill="#0A264D"></path>
                    </g>
                </g>
            </g>
        </g>
    </g>
</svg>