<?xml version="1.0" encoding="UTF-8" standalone="no"?>
<svg width="48px" height="48px" viewBox="0 0 48 48" version="1.1" xmlns="http://www.w3.org/2000/svg" xmlns:xlink="http://www.w3.org/1999/xlink">
    <!-- Generator: Sketch 39.1 (31720) - http://www.bohemiancoding.com/sketch -->
    <title>icn-easy-use</title>
    <desc>Created with Sketch.</desc>
    <defs></defs>
    <g id="Page-1" stroke="none" stroke-width="1" fill="none" fill-rule="evenodd">
        <g id="icn-easy-use" fill="#FFFFFF">
            <g id="Group-Copy-8-+-Rectangle-237-Copy-2-+-Rectangle-240-Copy-Copy">
                <path d="M18,31.5 L0,31.5 L0,0 L43.5,0 L43.5,10 L42,10 L42,1.5 L1.5,1.5 L1.5,30 L22.5,30 L22.5,31.5 L21,31.5 L21,39 L18,39 L18,31.5 Z M6,39 L21,39 L21,42 L6,42 L6,39 Z" id="Rectangle-237-Copy-2"></path>
                <path d="M21,9 L48,9 L48,48 L21,48 L21,9 Z M34.5,46.5 C35.3284271,46.5 36,45.8284271 36,45 C36,44.1715729 35.3284271,43.5 34.5,43.5 C33.6715729,43.5 33,44.1715729 33,45 C33,45.8284271 33.6715729,46.5 34.5,46.5 Z M22.5,10.5 L46.5,10.5 L46.5,42 L22.5,42 L22.5,10.5 Z" id="Rectangle-240-Copy"></path>
            </g>
        </g>
    </g>
</svg>